<svg width="32" height="32" viewBox="0 0 32 32" fill="none" xmlns="http://www.w3.org/2000/svg">
<g id="Grid" opacity="0.14" clip-path="url(#clip0_336_25)">
<path id="Vector" fill-rule="evenodd" clip-rule="evenodd" d="M15.9612 0H16.0388V1.96123C17.8929 1.96625 19.6625 2.33069 21.2816 2.98855V0H21.3592V3.02038C22.7339 3.58859 23.9986 4.36882 25.1126 5.32031H26.602V0H26.6796V5.32031H32V5.39798H26.6796V6.88728C27.6311 8.0013 28.4113 9.26601 28.9796 10.6406H32V10.7183H29.0114C29.6693 12.3373 30.0337 14.1069 30.0388 15.9609H32V16.0386H30.0388C30.0338 17.8927 29.6694 19.6622 29.0116 21.2812H32V21.3589H28.9798C28.4115 22.7337 27.6312 23.9986 26.6796 25.1128V26.6016H32V26.6792H26.6796V32H26.602V26.6792H25.1132C23.999 27.6309 22.7341 28.4113 21.3592 28.9797V32H21.2816V29.0115C19.6625 29.6693 17.8929 30.0338 16.0388 30.0388V32H15.9612V30.0388C14.1071 30.0338 12.3375 29.6693 10.7184 29.0115V32H10.6408V28.9797C9.26589 28.4113 8.00097 27.6309 6.88678 26.6792H5.39804V32H5.32037V26.6792H0V26.6016H5.32037V25.1128C4.36877 23.9986 3.58847 22.7337 3.02023 21.3589H0V21.2812H2.9884C2.3306 19.6622 1.96621 17.8927 1.96122 16.0386H0V15.9609H1.96122C1.96627 14.1069 2.33073 12.3373 2.9886 10.7183H0V10.6406H3.02044C3.58866 9.26601 4.36889 8.0013 5.32037 6.88728V5.39798H0V5.32031H5.32037V0H5.39804V5.32031H6.88736C8.0014 4.36882 9.26613 3.58859 10.6408 3.02038V0H10.7184V2.98855C12.3375 2.33069 14.1071 1.96626 15.9612 1.96123V0ZM15.9612 2.0389C14.1062 2.04396 12.3364 2.41075 10.7184 3.07245V5.32031H15.9612V2.0389ZM10.6408 3.10449C9.31373 3.65662 8.0902 4.40763 7.00741 5.32031H10.6408V3.10449ZM6.79719 5.39798H5.39804V6.79711C5.8311 6.29865 6.29872 5.83103 6.79719 5.39798ZM5.39804 6.91598C5.86452 6.37206 6.37213 5.86446 6.91606 5.39798H10.6408V10.6406H5.39804V6.91598ZM5.32037 7.00733C4.4077 8.0901 3.65669 9.3136 3.10454 10.6406H5.32037V7.00733ZM3.0725 10.7183C2.41078 12.3362 2.04397 14.106 2.03889 15.9609H5.32037V10.7183H3.0725ZM2.03889 16.0386C2.04391 17.8935 2.41065 19.6633 3.0723 21.2812H5.32037V16.0386H2.03889ZM3.10434 21.3589C3.6565 22.6861 4.40759 23.9098 5.32037 24.9927V21.3589H3.10434ZM5.39804 25.2029V26.6016H6.79662C6.29837 26.1686 5.83093 25.7012 5.39804 25.2029ZM6.91548 26.6016C6.37178 26.1352 5.86436 25.6278 5.39804 25.0841V21.3589H10.6408V26.6016H6.91548ZM7.00683 26.6792C8.08976 27.5921 9.31349 28.3433 10.6408 28.8955V26.6792H7.00683ZM10.7184 28.9276C12.3364 29.5893 14.1062 29.9561 15.9612 29.9611V26.6792H10.7184V28.9276ZM16.0388 29.9611C17.8937 29.9561 19.6636 29.5893 21.2816 28.9276V26.6792H16.0388V29.9611ZM21.3592 28.8955C22.6865 28.3433 23.9102 27.5921 24.9932 26.6792H21.3592V28.8955ZM25.2034 26.6016H26.602V25.2029C26.1691 25.7012 25.7016 26.1686 25.2034 26.6016ZM26.602 25.0841C26.1356 25.6278 25.6282 26.1352 25.0845 26.6016H21.3592V21.3589H26.602V25.0841ZM26.6796 24.9927C27.5924 23.9098 28.3435 22.6861 28.8957 21.3589H26.6796V24.9927ZM28.9277 21.2812C29.5894 19.6633 29.9561 17.8935 29.9611 16.0386H26.6796V21.2812H28.9277ZM29.9611 15.9609C29.956 14.1061 29.5892 12.3362 28.9275 10.7183H26.6796V15.9609H29.9611ZM28.8955 10.6406C28.3433 9.3136 27.5923 8.0901 26.6796 7.00733V10.6406H28.8955ZM26.602 6.79711V5.39798H25.2028C25.7013 5.83103 26.1689 6.29865 26.602 6.79711ZM25.0839 5.39798C25.6279 5.86446 26.1355 6.37206 26.602 6.91598V10.6406H21.3592V5.39798H25.0839ZM24.9926 5.32031C23.9098 4.40763 22.6863 3.65662 21.3592 3.10449V5.32031H24.9926ZM21.2816 3.07245C19.6636 2.41074 17.8937 2.04395 16.0388 2.0389V5.32031H21.2816V3.07245ZM10.7184 5.39798H15.9612V10.6406H10.7184V5.39798ZM21.2816 5.39798H16.0388V10.6406H21.2816V5.39798ZM10.6408 21.2812H5.39804V16.0386H10.6408V21.2812ZM10.7184 21.3589V26.6016H15.9612V21.3589H10.7184ZM15.9612 21.2812H10.7184V16.0386H15.9612V21.2812ZM16.0388 21.3589V26.6016H21.2816V21.3589H16.0388ZM21.2816 21.2812H16.0388V16.0386H21.2816V21.2812ZM26.602 21.2812H21.3592V16.0386H26.602V21.2812ZM10.7184 10.7183H15.9612V15.9609H10.7184V10.7183ZM5.39804 10.7183L10.6408 10.7183V15.9609H5.39804V10.7183ZM21.2816 10.7183H16.0388V15.9609H21.2816V10.7183ZM21.3592 15.9609V10.7183L26.602 10.7183V15.9609H21.3592Z" fill="#0A0D12"/>
</g>
<defs>
<clipPath id="clip0_336_25">
<rect width="32" height="32" fill="white"/>
</clipPath>
</defs>
</svg>
