<svg width="97" height="32" viewBox="0 0 97 32" fill="none" xmlns="http://www.w3.org/2000/svg">
<g id="Logotype">
<g id="Vector">
<path d="M33.9101 10.2372C34.2321 10.5355 34.6179 10.6846 35.0678 10.6846C35.5176 10.6846 35.9011 10.5355 36.2183 10.2372C36.5403 9.93414 36.7013 9.57193 36.7013 9.15052C36.7013 8.73386 36.5403 8.37638 36.2183 8.07808C35.9011 7.77505 35.5176 7.62354 35.0678 7.62354C34.6179 7.62354 34.2321 7.77505 33.9101 8.07808C33.5928 8.37638 33.4342 8.73386 33.4342 9.15052C33.4342 9.57193 33.5928 9.93414 33.9101 10.2372Z" fill="white"/>
<path d="M11.2997 20.6846C11.8063 19.8892 12.0597 18.9611 12.0597 17.9005V8.4545H8.98438V17.6377C8.98438 18.1917 8.86127 18.6841 8.61506 19.115C8.37358 19.5459 8.0303 19.8844 7.58523 20.1306C7.14489 20.3769 6.62642 20.5 6.02983 20.5C5.43797 20.5 4.91951 20.3769 4.47443 20.1306C4.02936 19.8844 3.68371 19.5459 3.4375 19.115C3.19602 18.6841 3.07528 18.1917 3.07528 17.6377V8.4545H0V17.9005C0 18.9611 0.250947 19.8892 0.752841 20.6846C1.25473 21.4801 1.95786 22.1003 2.86222 22.5454C3.76657 22.9858 4.82244 23.2059 6.02983 23.2059C7.23248 23.2059 8.28599 22.9858 9.19034 22.5454C10.0947 22.1003 10.7978 21.4801 11.2997 20.6846Z" fill="white"/>
<path d="M18.3589 12.5099C17.7907 12.8792 17.3859 13.3811 17.1444 14.0156H17.0165V12.0909H14.133V23H17.1586V16.6931C17.1633 16.2244 17.2509 15.8243 17.4214 15.4929C17.5966 15.1567 17.838 14.901 18.1458 14.7258C18.4583 14.5506 18.8182 14.463 19.2254 14.463C19.8314 14.463 20.3073 14.6524 20.6529 15.0312C20.9986 15.4053 21.169 15.9261 21.1643 16.5937V23H24.1898V16.0539C24.1898 15.2064 24.0336 14.4772 23.7211 13.8664C23.4086 13.2509 22.9706 12.7774 22.4072 12.446C21.8437 12.1145 21.1832 11.9488 20.4256 11.9488C19.616 11.9488 18.9271 12.1358 18.3589 12.5099Z" fill="white"/>
<path d="M27.3463 21.821C27.0433 21.3522 26.8941 20.7604 26.8989 20.0454V14.3636H25.4074V12.0909H26.8989V9.47723H29.9244V12.0909H31.977V14.3636H29.9244V19.6477C29.9244 19.927 29.967 20.1448 30.0523 20.3011C30.1375 20.4526 30.2559 20.5591 30.4074 20.6207C30.5636 20.6822 30.7436 20.713 30.9472 20.713C31.0892 20.713 31.2313 20.7012 31.3733 20.6775C31.5153 20.6491 31.6242 20.6278 31.7 20.6136L32.1759 22.865C32.0243 22.9124 31.8113 22.9668 31.5366 23.0284C31.262 23.0947 30.9282 23.1349 30.5352 23.1491C29.8061 23.1775 29.1669 23.0804 28.6176 22.8579C28.0731 22.6354 27.6493 22.2897 27.3463 21.821Z" fill="white"/>
<path d="M39.769 21.821C39.4659 21.3522 39.3168 20.7604 39.3215 20.0454V14.3636H37.83V12.0909H39.3215V9.47723H42.3471V12.0909H44.3996V14.3636H42.3471V19.6477C42.3471 19.927 42.3897 20.1448 42.4749 20.3011C42.5602 20.4526 42.6785 20.5591 42.83 20.6207C42.9863 20.6822 43.1662 20.713 43.3698 20.713C43.5119 20.713 43.6539 20.7012 43.796 20.6775C43.938 20.6491 44.0469 20.6278 44.1227 20.6136L44.5985 22.865C44.447 22.9124 44.2339 22.9668 43.9593 23.0284C43.6847 23.0947 43.3509 23.1349 42.9579 23.1491C42.2287 23.1775 41.5895 23.0804 41.0403 22.8579C40.4958 22.6354 40.072 22.2897 39.769 21.821Z" fill="white"/>
<path fill-rule="evenodd" clip-rule="evenodd" d="M56.2257 23.213C55.1035 23.213 54.1376 22.9858 53.328 22.5312C52.5231 22.0719 51.9028 21.4233 51.4672 20.5852C51.0316 19.7424 50.8138 18.7457 50.8138 17.5951C50.8138 16.473 51.0316 15.4881 51.4672 14.6406C51.9028 13.793 52.516 13.1325 53.3067 12.659C54.1021 12.1856 55.0349 11.9488 56.105 11.9488C56.8247 11.9488 57.4946 12.0648 58.1149 12.2968C58.7399 12.5241 59.2844 12.8674 59.7484 13.3267C60.2172 13.7859 60.5818 14.3636 60.8422 15.0596C61.1026 15.7509 61.2328 16.5606 61.2328 17.4886V18.3196H53.8038V18.3267C53.8038 18.8664 53.9033 19.3328 54.1021 19.7258C54.3057 20.1188 54.5922 20.4218 54.9615 20.6349C55.3308 20.848 55.7688 20.9545 56.2754 20.9545C56.6116 20.9545 56.9194 20.9072 57.1987 20.8125C57.4781 20.7178 57.7172 20.5757 57.916 20.3863C58.1149 20.1969 58.2664 19.9649 58.3706 19.6903L61.1689 19.875C61.0268 20.5473 60.7357 21.1344 60.2953 21.6363C59.8597 22.1335 59.2963 22.5217 58.605 22.8011C57.9184 23.0757 57.1253 23.213 56.2257 23.213ZM54.1092 15.3721C53.9258 15.6953 53.8249 16.0528 53.8067 16.4446H58.3848C58.3848 16.009 58.2901 15.6231 58.1007 15.2869C57.9113 14.9507 57.6485 14.6879 57.3124 14.4985C56.9809 14.3044 56.595 14.2073 56.1547 14.2073C55.6954 14.2073 55.2882 14.3139 54.9331 14.5269C54.5827 14.7353 54.3081 15.017 54.1092 15.3721Z" fill="white"/>
<path fill-rule="evenodd" clip-rule="evenodd" d="M64.5757 22.5383C65.2481 22.9644 65.9985 23.1775 66.8271 23.1775C67.4143 23.1775 67.9114 23.0804 68.3186 22.8863C68.7305 22.6922 69.0643 22.4483 69.32 22.1548C69.5804 21.8565 69.7817 21.5558 69.9237 21.2528H70.0516V23H73.0345V8.4545H70.0161V13.9233H69.9237C69.7911 13.6297 69.597 13.3314 69.3413 13.0284C69.0904 12.7206 68.7589 12.4649 68.347 12.2613C67.9398 12.053 67.4308 11.9488 66.82 11.9488C66.0198 11.9488 65.2836 12.1572 64.6112 12.5738C63.9436 12.9858 63.4086 13.6084 63.0061 14.4417C62.6036 15.2703 62.4024 16.3096 62.4024 17.5596C62.4024 18.7765 62.5965 19.8039 62.9848 20.642C63.3778 21.4753 63.9081 22.1074 64.5757 22.5383ZM69.0217 20.3721C68.6856 20.6373 68.2736 20.7698 67.7859 20.7698C67.2888 20.7698 66.8698 20.6349 66.5288 20.365C66.1927 20.0904 65.9346 19.7116 65.7547 19.2286C65.5795 18.741 65.4919 18.1799 65.4919 17.5454C65.4919 16.9157 65.5795 16.3617 65.7547 15.8835C65.9299 15.4053 66.1879 15.0312 66.5288 14.7613C66.8698 14.4914 67.2888 14.3565 67.7859 14.3565C68.2736 14.3565 68.6879 14.4867 69.0288 14.7471C69.3698 15.0075 69.6302 15.3768 69.8101 15.8551C69.99 16.3333 70.08 16.8967 70.08 17.5454C70.08 18.1941 69.9876 18.7599 69.803 19.2429C69.6231 19.7258 69.3626 20.1022 69.0217 20.3721Z" fill="white"/>
<path d="M88.0229 19.115C88.2691 18.6841 88.3922 18.1917 88.3922 17.6377V8.4545H91.4675V17.9005C91.4675 18.9611 91.2142 19.8892 90.7075 20.6846C90.2056 21.4801 89.5025 22.1003 88.5982 22.5454C87.6938 22.9858 86.6403 23.2059 85.4376 23.2059C84.2303 23.2059 83.1744 22.9858 82.27 22.5454C81.3657 22.1003 80.6625 21.4801 80.1607 20.6846C79.6588 19.8892 79.4078 18.9611 79.4078 17.9005V8.4545H82.4831V17.6377C82.4831 18.1917 82.6038 18.6841 82.8453 19.115C83.0915 19.5459 83.4372 19.8844 83.8822 20.1306C84.3273 20.3769 84.8458 20.5 85.4376 20.5C86.0342 20.5 86.5527 20.3769 86.993 20.1306C87.4381 19.8844 87.7814 19.5459 88.0229 19.115Z" fill="white"/>
<path d="M33.5479 12.0909V23H36.5734V12.0909H33.5479Z" fill="white"/>
<path d="M49.2305 23V8.4545H46.2049V23H49.2305Z" fill="white"/>
<path d="M96.6729 23V8.4545H93.5977V23H96.6729Z" fill="white"/>
</g>
</g>
</svg>
